<?xml version="1.0" standalone="no"?>
<!DOCTYPE svg PUBLIC "-//W3C//DTD SVG 20010904//EN"
 "http://www.w3.org/TR/2001/REC-SVG-20010904/DTD/svg10.dtd">
<svg version="1.0" xmlns="http://www.w3.org/2000/svg"
 width="1920.000000pt" height="1920.000000pt" viewBox="0 0 1920.000000 1920.000000"
 preserveAspectRatio="xMidYMid meet">
<metadata>
Created by potrace 1.11, written by Peter Selinger 2001-2013
</metadata>
<g transform="translate(0.000000,1920.000000) scale(0.100000,-0.100000)"
fill="#000000" stroke="none">
<path d="M9218 18205 c-2 -2 -64 -6 -138 -10 -74 -4 -151 -8 -170 -10 -19 -1
-75 -5 -125 -9 -49 -4 -106 -9 -125 -11 -19 -2 -60 -7 -90 -10 -30 -3 -71 -8
-90 -10 -19 -3 -55 -7 -80 -10 -25 -3 -58 -7 -75 -9 -16 -3 -52 -7 -80 -11
-27 -3 -75 -10 -105 -15 -30 -5 -72 -12 -94 -16 -21 -3 -48 -7 -59 -10 -12 -2
-39 -6 -62 -9 -56 -9 -319 -62 -445 -91 -58 -13 -116 -27 -130 -30 -14 -3 -70
-17 -125 -30 -55 -14 -107 -28 -115 -29 -36 -9 -363 -106 -440 -130 -305 -98
-728 -260 -968 -371 -41 -19 -76 -34 -78 -34 -3 0 -71 -32 -152 -71 -81 -39
-160 -78 -177 -85 -16 -8 -77 -39 -135 -70 -91 -48 -147 -79 -330 -182 -207
-116 -745 -463 -861 -556 -15 -12 -39 -30 -54 -41 -26 -18 -113 -84 -160 -120
-11 -9 -33 -26 -49 -38 -26 -20 -182 -145 -231 -185 -107 -89 -248 -212 -405
-356 -107 -98 -460 -455 -555 -560 -44 -48 -85 -93 -90 -100 -6 -6 -42 -47
-80 -91 -38 -44 -71 -82 -74 -85 -3 -3 -24 -27 -46 -55 -21 -27 -42 -52 -45
-55 -27 -25 -306 -390 -416 -545 -178 -251 -427 -645 -549 -870 -22 -38 -49
-88 -62 -110 -91 -160 -347 -699 -425 -895 -16 -41 -36 -88 -43 -105 -18 -38
-135 -352 -135 -360 0 -4 -11 -34 -24 -68 -13 -34 -43 -123 -66 -197 -23 -74
-45 -146 -50 -160 -9 -25 -58 -193 -65 -220 -2 -8 -26 -103 -54 -210 -27 -108
-53 -212 -56 -230 -3 -19 -11 -55 -16 -80 -6 -25 -12 -54 -15 -65 -47 -231
-51 -252 -58 -301 -4 -22 -11 -64 -16 -94 -5 -30 -12 -73 -15 -95 -3 -22 -7
-49 -10 -60 -2 -11 -9 -60 -15 -110 -6 -49 -13 -105 -16 -122 -2 -18 -6 -48
-8 -65 -3 -18 -8 -64 -11 -103 -4 -38 -8 -80 -10 -93 -2 -13 -7 -67 -11 -120
-3 -53 -8 -105 -10 -115 -25 -133 -25 -1136 1 -1392 2 -22 7 -79 10 -127 3
-48 8 -98 10 -110 2 -13 6 -55 9 -93 4 -39 8 -81 11 -95 2 -14 6 -47 9 -75 5
-52 13 -108 21 -160 3 -16 8 -50 11 -75 3 -25 12 -81 19 -125 8 -44 17 -98 20
-120 8 -58 60 -313 90 -445 15 -63 29 -124 31 -136 20 -107 148 -557 211 -744
89 -262 145 -415 218 -595 84 -206 106 -256 192 -445 56 -123 234 -473 300
-590 38 -69 85 -152 104 -185 18 -33 37 -62 41 -63 4 -2 8 -8 8 -14 0 -25 275
-450 448 -693 197 -275 494 -645 692 -859 316 -343 642 -658 940 -906 29 -25
70 -59 89 -75 20 -17 52 -42 71 -57 19 -14 44 -34 55 -44 11 -11 45 -38 76
-61 l57 -42 97 195 c68 137 108 207 135 232 21 20 95 91 166 157 70 66 135
127 143 136 19 20 145 101 351 227 212 129 308 201 434 328 121 121 223 267
305 439 32 66 80 154 106 195 95 149 256 330 416 470 41 36 80 71 88 78 7 7
62 49 122 94 60 44 109 82 109 83 0 4 -28 73 -47 115 -8 19 -24 55 -35 80 -10
25 -26 59 -33 75 -59 127 -192 443 -211 500 -118 365 -176 581 -218 820 -3 17
-15 73 -26 125 -53 238 -129 598 -135 633 -3 18 -8 39 -10 47 -4 14 -53 243
-75 350 -5 25 -11 54 -14 65 -10 46 -67 312 -71 335 -9 49 -13 66 -29 125 -9
33 -19 68 -21 78 -2 10 -17 62 -34 115 -16 53 -41 138 -56 187 -14 50 -32 108
-39 130 -45 140 -53 174 -60 260 -4 39 -8 84 -10 100 -2 17 -7 64 -11 105 -8
82 -10 99 -19 180 -9 74 -17 135 -19 136 -1 0 -42 20 -92 44 -173 84 -335 201
-479 345 -88 88 -172 193 -187 233 -13 34 4 88 49 158 21 32 41 67 45 76 3 10
-2 57 -13 105 -64 301 -58 503 15 503 20 0 19 5 -21 87 -77 156 -110 237 -108
263 3 35 5 39 25 35 12 -3 39 -13 61 -25 l38 -20 -29 58 c-16 31 -35 77 -41
102 -13 47 -7 161 9 202 17 43 84 303 88 343 12 124 58 204 152 265 22 15 22
18 11 60 -16 59 -20 99 -24 255 -5 165 12 228 79 301 43 46 46 52 40 89 -23
146 2 205 80 191 l33 -6 0 53 c0 65 15 92 80 138 116 83 121 92 136 239 7 65
21 117 37 136 15 18 57 18 93 -1 16 -9 30 -14 32 -13 1 2 -4 29 -11 61 -27
117 -12 148 171 362 77 90 134 177 134 205 0 6 9 30 20 54 24 50 64 72 144 81
28 3 51 7 52 8 1 1 5 29 9 62 9 84 23 106 80 135 28 14 51 28 53 32 2 4 19 31
39 61 39 60 95 100 185 131 57 20 61 24 75 66 20 59 30 70 64 70 16 0 30 5 30
10 1 6 3 15 4 20 1 6 3 18 4 28 3 45 23 54 109 53 46 -1 87 -2 93 -4 6 -1 19
18 28 42 24 66 67 106 131 125 51 14 96 23 128 25 9 1 11 18 8 64 -2 38 1 76
9 93 15 36 78 80 197 137 l87 42 32 80 c144 360 420 792 687 1076 84 90 259
259 321 311 246 206 502 357 706 417 208 61 410 80 585 56 30 -4 66 -9 80 -10
157 -21 346 -68 585 -146 113 -37 250 -100 305 -139 30 -22 71 -51 91 -64 20
-13 42 -30 50 -38 37 -35 210 -157 254 -178 193 -95 447 -254 568 -356 38 -31
123 -125 190 -208 156 -194 224 -275 229 -271 8 9 258 -58 342 -91 412 -163
611 -346 728 -669 16 -44 29 -81 28 -82 -2 -17 10 -25 73 -51 296 -124 676
-322 870 -454 113 -77 295 -257 408 -403 44 -57 84 -99 220 -234 188 -187 247
-271 309 -441 71 -194 130 -291 256 -420 45 -47 95 -101 111 -120 15 -19 31
-37 34 -40 21 -17 80 -126 95 -176 23 -79 21 -206 -5 -314 l-20 -85 29 -28
c55 -52 37 -114 -89 -318 -8 -12 -1 -28 24 -67 103 -152 119 -224 102 -437 -2
-25 4 -58 18 -90 46 -105 55 -162 53 -321 -1 -82 2 -201 6 -264 13 -168 8
-433 -9 -459 -17 -29 -27 -439 -13 -554 8 -64 4 -75 -87 -242 -78 -142 -238
-368 -426 -600 -186 -230 -253 -288 -400 -345 l-71 -27 -2 -154 c-2 -179 -5
-186 -96 -276 -48 -48 -60 -67 -59 -89 1 -16 1 -41 0 -55 -1 -25 -58 -121
-108 -183 -21 -25 -23 -36 -19 -95 5 -92 -11 -145 -76 -242 -135 -201 -456
-554 -558 -612 -81 -46 -282 -83 -451 -82 l-75 0 -33 -160 c-19 -88 -42 -198
-53 -245 -11 -47 -22 -94 -24 -105 -2 -11 -8 -42 -14 -70 -6 -27 -12 -59 -14
-70 -2 -11 -20 -93 -40 -183 -20 -89 -38 -177 -41 -195 -3 -18 -10 -47 -15
-66 -5 -19 -8 -36 -7 -37 1 -1 37 -4 80 -8 116 -9 203 -23 292 -46 240 -62
385 -145 520 -296 76 -86 255 -314 255 -326 0 -3 63 -116 140 -251 77 -136
144 -254 149 -264 5 -10 25 -45 44 -78 19 -33 77 -137 131 -231 53 -95 129
-217 169 -273 39 -55 92 -130 117 -166 25 -36 50 -73 57 -83 10 -15 14 -15 55
5 47 23 162 51 193 47 11 -1 47 -4 80 -7 170 -16 419 -136 626 -302 139 -112
308 -287 520 -539 13 -16 47 -54 76 -85 28 -31 59 -66 70 -79 l18 -23 165 164
c332 330 598 631 845 957 44 58 83 107 86 110 12 12 213 295 296 420 268 402
526 860 716 1270 76 165 104 228 167 380 139 334 230 595 360 1030 19 64 79
289 85 319 2 9 8 36 15 61 7 25 13 52 15 60 2 8 15 65 29 125 14 61 28 126 31
145 3 19 10 53 15 75 5 22 11 60 15 85 3 25 10 61 15 80 8 33 32 185 44 275
12 90 18 130 21 135 2 3 6 36 10 74 3 37 8 82 10 100 2 17 7 60 11 96 3 36 8
72 9 80 2 8 6 62 10 120 4 58 8 118 10 134 19 154 27 959 12 1191 -16 256 -30
431 -42 520 -2 17 -7 57 -10 90 -3 33 -8 76 -11 95 -3 19 -9 67 -14 105 -6 39
-15 102 -21 140 -6 39 -12 82 -14 97 -27 192 -142 719 -214 983 -64 232 -160
533 -237 745 -46 123 -113 299 -124 325 -5 11 -30 70 -56 130 -142 338 -386
828 -519 1045 -12 19 -25 42 -29 50 -4 8 -12 24 -19 35 -7 11 -30 49 -51 85
-145 246 -512 780 -653 950 -7 8 -56 69 -109 135 -53 66 -110 136 -128 155
-17 19 -53 62 -81 95 -27 33 -59 69 -70 81 -11 11 -54 59 -95 105 -141 159
-517 529 -724 714 -106 95 -408 346 -470 390 -16 11 -33 25 -40 31 -53 50
-450 330 -666 470 -227 147 -723 434 -750 434 -4 0 -13 7 -20 15 -6 8 -15 14
-18 13 -4 -1 -79 34 -167 78 -88 44 -189 93 -225 108 -36 16 -99 44 -140 63
-41 19 -84 38 -95 42 -11 5 -36 16 -55 24 -86 37 -376 149 -485 187 -66 23
-129 45 -140 50 -21 9 -146 49 -315 100 -58 17 -116 35 -130 40 -14 5 -54 17
-90 26 -36 9 -72 18 -80 20 -103 26 -300 75 -315 78 -26 5 -297 63 -355 76
-25 5 -61 12 -80 15 -19 3 -71 12 -115 20 -44 7 -116 19 -160 25 -44 6 -91 13
-105 15 -14 2 -45 7 -70 10 -25 3 -56 8 -70 10 -14 2 -56 7 -95 11 -38 3 -77
8 -85 9 -8 2 -49 6 -90 9 -41 4 -93 9 -115 11 -22 2 -85 7 -140 10 -55 4 -122
9 -150 11 -56 6 -912 14 -917 9z"/>
</g>
</svg>
